<mxfile host="app.diagrams.net" modified="2022-01-25T05:28:30.444Z" agent="5.0 (Windows NT 10.0; Win64; x64) AppleWebKit/537.36 (KHTML, like Gecko) Chrome/96.0.4664.45 Safari/537.36" etag="bKhbFQBm6jeV7JeMHRjo" version="15.9.4" type="github">
  <diagram id="2agMQH7edlITYelNsUCE" name="第 1 页">
    <mxGraphModel dx="1422" dy="762" grid="1" gridSize="10" guides="1" tooltips="1" connect="1" arrows="1" fold="1" page="1" pageScale="1" pageWidth="827" pageHeight="1169" math="0" shadow="0">
      <root>
        <mxCell id="0" />
        <mxCell id="1" parent="0" />
        <mxCell id="tHqurKd3f86wDbEin29t-1" value="" style="rounded=0;whiteSpace=wrap;html=1;fillColor=#b0e3e6;strokeColor=#0e8088;" vertex="1" parent="1">
          <mxGeometry x="130" y="80" width="570" height="390" as="geometry" />
        </mxCell>
        <mxCell id="tHqurKd3f86wDbEin29t-7" value="当前栈帧" style="rounded=0;whiteSpace=wrap;html=1;fillColor=#d5e8d4;gradientColor=#97d077;strokeColor=#82b366;" vertex="1" parent="1">
          <mxGeometry x="180" y="150" width="120" height="60" as="geometry" />
        </mxCell>
        <mxCell id="tHqurKd3f86wDbEin29t-8" value="........" style="rounded=0;whiteSpace=wrap;html=1;fillColor=#f5f5f5;gradientColor=#b3b3b3;strokeColor=#666666;" vertex="1" parent="1">
          <mxGeometry x="180" y="210" width="120" height="60" as="geometry" />
        </mxCell>
        <mxCell id="tHqurKd3f86wDbEin29t-9" value="栈帧2" style="rounded=0;whiteSpace=wrap;html=1;fillColor=#f5f5f5;gradientColor=#b3b3b3;strokeColor=#666666;" vertex="1" parent="1">
          <mxGeometry x="180" y="270" width="120" height="60" as="geometry" />
        </mxCell>
        <mxCell id="tHqurKd3f86wDbEin29t-10" value="栈帧1" style="rounded=0;whiteSpace=wrap;html=1;fillColor=#f5f5f5;gradientColor=#b3b3b3;strokeColor=#666666;" vertex="1" parent="1">
          <mxGeometry x="180" y="330" width="120" height="60" as="geometry" />
        </mxCell>
        <mxCell id="tHqurKd3f86wDbEin29t-11" value="" style="rounded=0;whiteSpace=wrap;html=1;fillColor=#1ba1e2;fontColor=#ffffff;strokeColor=#006EAF;" vertex="1" parent="1">
          <mxGeometry x="400" y="150" width="180" height="250" as="geometry" />
        </mxCell>
        <mxCell id="tHqurKd3f86wDbEin29t-12" value="局部变量&lt;br&gt;Local Variable Table" style="rounded=1;whiteSpace=wrap;html=1;fillColor=#d5e8d4;gradientColor=#97d077;strokeColor=#82b366;" vertex="1" parent="1">
          <mxGeometry x="420" y="170" width="120" height="50" as="geometry" />
        </mxCell>
        <mxCell id="tHqurKd3f86wDbEin29t-14" value="操作数栈&lt;br&gt;Operand Stack" style="rounded=1;whiteSpace=wrap;html=1;fillColor=#d5e8d4;gradientColor=#97d077;strokeColor=#82b366;" vertex="1" parent="1">
          <mxGeometry x="420" y="240" width="120" height="40" as="geometry" />
        </mxCell>
        <mxCell id="tHqurKd3f86wDbEin29t-15" value="动态链接&lt;br&gt;Dynamic Linking" style="rounded=1;whiteSpace=wrap;html=1;fillColor=#d5e8d4;gradientColor=#97d077;strokeColor=#82b366;" vertex="1" parent="1">
          <mxGeometry x="420" y="300" width="120" height="40" as="geometry" />
        </mxCell>
        <mxCell id="tHqurKd3f86wDbEin29t-16" value="方法返回地址&lt;br&gt;Return Address" style="rounded=1;whiteSpace=wrap;html=1;fillColor=#d5e8d4;gradientColor=#97d077;strokeColor=#82b366;" vertex="1" parent="1">
          <mxGeometry x="420" y="350" width="120" height="40" as="geometry" />
        </mxCell>
        <mxCell id="tHqurKd3f86wDbEin29t-18" value="虚拟机栈（JVM Stack）" style="text;strokeColor=none;fillColor=none;html=1;fontSize=24;fontStyle=1;verticalAlign=middle;align=center;" vertex="1" parent="1">
          <mxGeometry x="340" y="90" width="100" height="40" as="geometry" />
        </mxCell>
        <mxCell id="tHqurKd3f86wDbEin29t-19" value="放大结构" style="endArrow=classic;html=1;rounded=0;fontColor=#000000;entryX=-0.028;entryY=0.112;entryDx=0;entryDy=0;entryPerimeter=0;" edge="1" parent="1" target="tHqurKd3f86wDbEin29t-11">
          <mxGeometry width="50" height="50" relative="1" as="geometry">
            <mxPoint x="300" y="180" as="sourcePoint" />
            <mxPoint x="350" y="130" as="targetPoint" />
          </mxGeometry>
        </mxCell>
      </root>
    </mxGraphModel>
  </diagram>
</mxfile>
